PathFileType	4	(X/Y/Z)	C:\Users\WrightLab\Desktop\Jo\P1_boxCal5.trc
DataRate	CameraRate	NumFrames	NumMarkers	Units	OrigDataRate	OrigDataStartFrame	OrigNumFrames
100.00	100.00	       13	19	mm	100.00	855	       976
Frame#	Time	Headset_Front			Headset_Back			Headset_Left			Headset_Right			Left_Shoulder			Right_Shoulder			Sternum			C7			Left Elbow			Right Elbow			Left Wrist			Right Wrist			Left ASIS			Right ASIS			S2			Left Knee			Right Knee			Left Ankle			Right Ankle			
		X1	Y1	Z1	X2	Y2	Z2	X3	Y3	Z3	X4	Y4	Z4	X5	Y5	Z5	X6	Y6	Z6	X7	Y7	Z7	X8	Y8	Z8	X9	Y9	Z9	X10	Y10	Z10	X11	Y11	Z11	X12	Y12	Z12	X13	Y13	Z13	X14	Y14	Z14	X15	Y15	Z15	X16	Y16	Z16	X17	Y17	Z17	X18	Y18	Z18	X19	Y19	Z19	

855	8.540							-137.35522	413.30643	-1629.17993	-13.84522	944.50031	-1424.44348	-33.93422	925.77979	-1663.20898	-285.17502	946.71893	-1189.75781													-574.28668	918.62927	-1399.13379	-154.84077	48.65561	-1669.64148	-486.67715	407.33514	-1603.35608				-486.73642	45.04250	-1638.53345				-497.97034	1246.94983	-1624.13635	-125.34673	1232.09033	-1681.96082	-412.36807	870.63892	-1470.68909	
856	8.550							-137.14265	413.47879	-1628.16113	-5.44962	939.29700	-1426.91956	-33.20524	925.54901	-1664.62402	-285.13483	946.40833	-1191.62964													-576.45319	913.98688	-1395.48962	-154.94449	48.79510	-1669.46533	-486.68411	407.32999	-1603.39160				-486.73102	45.07020	-1638.51147				-497.98547	1246.87183	-1624.44287	-125.38856	1231.94800	-1682.62354	-412.50388	870.66364	-1471.41882	
857	8.560							-137.12859	413.73077	-1627.22131	-0.79193	932.06891	-1427.84204	-32.45211	925.49854	-1666.43835	-285.13641	946.12646	-1193.63464													-578.85760	909.03546	-1392.89771	-154.84077	48.65561	-1669.64148	-486.68933	407.32611	-1603.41821				-486.76294	45.04542	-1638.67810				-498.02426	1246.76270	-1624.88879	-125.49538	1231.76538	-1683.47278	-413.39917	871.63586	-1468.99475	
858	8.570							-137.36365	412.57980	-1625.93091	3.82028	924.38147	-1428.80872	-31.73820	925.32703	-1667.87524	-285.13980	945.73297	-1195.66077													-581.86340	902.46179	-1396.30298	-154.94449	48.79510	-1669.46533	-486.69528	407.32175	-1603.44861				-486.74701	45.05510	-1638.59424				-498.07614	1246.61292	-1625.49988	-125.65937	1231.52246	-1684.60266	-413.56580	871.62500	-1469.88037	
859	8.580							-137.54482	412.29907	-1624.52515	7.95684	916.63916	-1429.72717	-30.94395	924.87939	-1668.80823	-285.18771	945.54370	-1197.79224																-154.94449	48.79510	-1669.46533	-486.68671	407.32806	-1603.40491				-486.72943	45.08195	-1638.50610							-125.79173	1231.28308	-1685.71606				
860	8.590							-137.58882	412.51599	-1624.04626	12.23114	908.65082	-1430.63831	-30.11145	924.41846	-1669.88208	-285.24103	945.45416	-1200.18152													-507.47174	984.95160	-1051.72876	-154.95027	49.08887	-1668.85083	-486.66751	407.34232	-1603.30688				-486.75818	45.04295	-1638.65161				-615.27820	990.64246	-1636.94580	-125.88005	1231.03186	-1686.88623	-490.48209	768.30048	-1851.66089	
861	8.600							-137.59975	412.62579	-1623.66528	13.01233	897.99188	-1433.06384	-29.33304	923.90356	-1670.61719	-285.24896	945.43866	-1202.66052																-154.83864	49.16289	-1668.56641	-486.67188	407.33908	-1603.32922				-486.74020	45.08590	-1638.56555							-126.04621	1230.73816	-1688.25220				
862	8.610							-137.51736	412.76700	-1622.98608	15.92927	889.05988	-1435.36768	-28.62660	923.37000	-1671.53979	-285.34460	945.37439	-1204.85730													-615.83411	990.23419	-1632.53479	-154.83864	49.16289	-1668.56641	-486.65689	407.35019	-1603.25269				-486.73886	45.08936	-1638.55920				-506.76865	975.45398	-1032.32727	-126.14577	1230.48145	-1689.44751				
863	8.620							-137.45560	413.07443	-1622.05420	18.80551	879.76013	-1438.63708	-27.89221	922.54803	-1671.76172	-285.37701	945.12140	-1206.37866																-154.83864	49.16289	-1668.56641	-486.63083	407.36951	-1603.11963				-486.74692	45.08692	-1638.60229							-126.20592	1230.27563	-1690.40686	-616.16241	990.06732	-1630.46167	
864	8.630							-137.35580	413.07599	-1621.59753	20.30153	870.82892	-1440.60706	-27.48126	922.10571	-1672.64880	-285.45673	944.80774	-1207.73950													-616.35205	989.77582	-1628.52454	-154.83864	49.16289	-1668.56641	-486.60693	407.38721	-1602.99756				-486.74338	45.09426	-1638.58508				-506.58469	967.26599	-1017.77777	-126.28534	1230.07654	-1691.33386				
865	8.640							-137.13777	413.07861	-1621.18848	22.67184	861.14618	-1446.43970	-27.20462	921.49634	-1673.33679	-285.59991	944.48688	-1208.86108																-154.83864	49.16289	-1668.56641	-486.59573	407.39551	-1602.94043				-486.72961	45.11343	-1638.51538							-126.41607	1229.88281	-1692.23450	-616.48004	989.45123	-1626.88745	
866	8.650							-137.05809	413.34116	-1620.22815	26.27548	853.06372	-1454.01147	-27.16466	920.90350	-1674.00183	-285.75546	944.24481	-1210.00281													-506.35791	959.21136	-1002.94281	-154.72707	49.23693	-1668.28198	-486.58752	407.37515	-1602.89221				-486.76077	45.09613	-1638.67981							-126.12350	1229.06250	-1691.69360	-616.42920	989.26746	-1625.84082	
867	8.660							-137.63968	413.10098	-1619.40625	22.97289	843.45477	-1454.18652	-27.48927	920.10712	-1674.57043	-285.96326	943.94885	-1210.93604																-154.72707	49.23693	-1668.28198	-486.55338	407.42105	-1602.72278				-486.75043	45.11044	-1638.62744							-126.25661	1228.89612	-1692.46582	-616.22284	988.93591	-1624.84485	
